<?xml version="1.0" encoding="UTF-8" standalone="no"?>
<!-- Created with Inkscape (http://www.inkscape.org/) -->

<svg
   width="14.541903mm"
   height="16.791542mm"
   viewBox="0 0 14.541903 16.791542"
   version="1.1"
   id="svg846"
   inkscape:version="1.1.2 (b8e25be833, 2022-02-05)"
   sodipodi:docname="magic.svg"
   xmlns:inkscape="http://www.inkscape.org/namespaces/inkscape"
   xmlns:sodipodi="http://sodipodi.sourceforge.net/DTD/sodipodi-0.dtd"
   xmlns="http://www.w3.org/2000/svg"
   xmlns:svg="http://www.w3.org/2000/svg">
  <sodipodi:namedview
     id="namedview848"
     pagecolor="#505050"
     bordercolor="#ffffff"
     borderopacity="1"
     inkscape:pageshadow="0"
     inkscape:pageopacity="0"
     inkscape:pagecheckerboard="1"
     inkscape:document-units="mm"
     showgrid="false"
     inkscape:zoom="10.24"
     inkscape:cx="38.134766"
     inkscape:cy="33.935547"
     inkscape:window-width="1920"
     inkscape:window-height="1051"
     inkscape:window-x="-9"
     inkscape:window-y="-9"
     inkscape:window-maximized="1"
     inkscape:current-layer="layer1"
     fit-margin-top="0"
     fit-margin-left="0"
     fit-margin-right="0"
     fit-margin-bottom="0" />
  <defs
     id="defs843" />
  <g
     inkscape:label="Layer 1"
     inkscape:groupmode="layer"
     id="layer1"
     transform="translate(-42.229049,-70.527305)">
    <path
       sodipodi:type="star"
       style="display:inline;fill:none;stroke:#000000;stroke-width:0.999999;stroke-linecap:round;stroke-opacity:1"
       id="path1365"
       inkscape:flatsided="true"
       sodipodi:sides="6"
       sodipodi:cx="90.54361"
       sodipodi:cy="66.237129"
       sodipodi:r1="10"
       sodipodi:r2="8.6602535"
       sodipodi:arg1="-1.5707963"
       sodipodi:arg2="-1.0471976"
       inkscape:rounded="0"
       inkscape:randomized="0"
       transform="matrix(0.79374999,0,0,0.79374999,-22.368989,26.347356)"
       d="m 90.54361,56.237129 8.660254,5 0,10 -8.660255,5 -8.660254,-5 1e-6,-10 z" />
    <path
       sodipodi:type="star"
       style="fill:#000000;fill-opacity:1;fill-rule:evenodd;stroke:none;stroke-width:3.77953;stroke-linejoin:bevel;stroke-miterlimit:4;stroke-dasharray:none"
       id="path1789"
       inkscape:flatsided="true"
       sodipodi:sides="265"
       sodipodi:cx="27.48076"
       sodipodi:cy="31.73205"
       sodipodi:r1="4.6871462"
       sodipodi:r2="4.0591879"
       sodipodi:arg1="-1.6208831"
       sodipodi:arg2="-1.609028"
       inkscape:rounded="0"
       inkscape:randomized="0"
       d="m 27.246094,27.050781 0.111049,-0.0042 0.111118,-0.0016 0.111126,0.001 0.11107,0.0037 0.110952,0.0063 0.110772,0.0089 0.11053,0.01154 0.110225,0.01416 0.109858,0.01677 0.10943,0.01937 0.10894,0.02196 0.108388,0.02453 0.107777,0.02709 0.107104,0.02964 0.106371,0.03217 0.105579,0.03468 0.104727,0.03718 0.103815,0.03965 0.102847,0.0421 0.101819,0.04453 0.100736,0.04693 0.09959,0.0493 0.0984,0.05165 0.09715,0.05397 0.09584,0.05626 0.09448,0.05851 0.09306,0.06074 0.0916,0.06293 0.09008,0.06508 0.08851,0.0672 0.08689,0.06928 0.08523,0.07132 0.08351,0.07332 0.08175,0.07528 0.07994,0.07719 0.07809,0.07907 0.07619,0.0809 0.07425,0.08268 0.07227,0.08442 0.07025,0.08611 0.06819,0.08775 0.06609,0.08934 0.06395,0.09088 0.06178,0.09237 0.05957,0.09381 0.05733,0.0952 0.05506,0.09653 0.05276,0.09781 0.05042,0.09903 0.04806,0.1002 0.04567,0.101312 0.04326,0.102366 0.04082,0.103363 0.03836,0.104301 0.03587,0.105181 0.03337,0.106003 0.03085,0.106763 0.02831,0.107465 0.02575,0.108106 0.02318,0.108685 0.0206,0.109205 0.018,0.109663 0.0154,0.110058 0.01278,0.110393 0.01016,0.110664 0.0075,0.110875 0.0049,0.111022 0.0023,0.111107 -3.63e-4,0.111129 -0.003,0.11109 -0.0056,0.110988 -0.0083,0.110823 -0.01088,0.110595 -0.0135,0.110307 -0.01611,0.109956 -0.01872,0.109543 -0.02131,0.109068 -0.02389,0.108532 -0.02646,0.107936 -0.02901,0.107277 -0.03154,0.106561 -0.03406,0.105782 -0.03656,0.104945 -0.03903,0.104049 -0.04149,0.103094 -0.04392,0.102082 -0.04633,0.101011 -0.04871,0.09989 -0.05107,0.0987 -0.05339,0.09746 -0.05569,0.09617 -0.05795,0.09482 -0.06019,0.09342 -0.06238,0.09197 -0.06455,0.09046 -0.06667,0.08891 -0.06876,0.0873 -0.07081,0.08565 -0.07282,0.08394 -0.07479,0.0822 -0.07672,0.0804 -0.0786,0.07856 -0.08044,0.07667 -0.08224,0.07474 -0.08399,0.07277 -0.08569,0.07076 -0.08734,0.06871 -0.08895,0.06662 -0.0905,0.06449 -0.09201,0.06233 -0.09346,0.06013 -0.09486,0.0579 -0.0962,0.05563 -0.09749,0.05334 -0.09873,0.05101 -0.09991,0.04865 -0.101039,0.04627 -0.102108,0.04386 -0.103118,0.04143 -0.104073,0.03897 -0.104966,0.03649 -0.105803,0.034 -0.106579,0.03148 -0.107295,0.02894 -0.107951,0.02639 -0.108547,0.02382 -0.109081,0.02124 -0.109553,0.01865 -0.109966,0.01605 -0.110314,0.01344 -0.110603,0.01082 -0.110828,0.0082 -0.11099,0.0056 -0.111092,0.0029 -0.11113,2.96e-4 -0.111106,-0.0023 -0.111019,-0.005 -0.110869,-0.0076 -0.110659,-0.01023 -0.110385,-0.01285 -0.110049,-0.01546 -0.109652,-0.01807 -0.109192,-0.02066 -0.108672,-0.02325 -0.108091,-0.02582 -0.107448,-0.02837 -0.106745,-0.03091 -0.105982,-0.03343 -0.10516,-0.03593 -0.104279,-0.03842 -0.103338,-0.04088 -0.10234,-0.04332 -0.101285,-0.04573 -0.100172,-0.04812 -0.099,-0.05048 -0.09778,-0.05282 -0.0965,-0.05512 -0.09517,-0.05739 -0.09378,-0.05963 -0.09234,-0.06184 -0.09085,-0.06401 -0.0893,-0.06614 -0.08771,-0.06824 -0.08607,-0.0703 -0.08438,-0.07232 -0.08264,-0.0743 -0.08085,-0.07624 -0.07902,-0.07814 -0.07715,-0.07999 -0.07523,-0.0818 -0.07327,-0.08356 -0.07127,-0.08527 -0.06923,-0.08694 -0.06715,-0.08855 -0.06503,-0.09012 -0.06287,-0.09163 -0.06068,-0.0931 -0.05846,-0.09451 -0.0562,-0.09587 -0.05391,-0.09718 -0.05159,-0.09843 -0.04924,-0.09962 -0.04687,-0.100763 -0.04447,-0.101846 -0.04204,-0.102871 -0.03959,-0.103839 -0.03712,-0.104749 -0.03462,-0.105599 -0.03211,-0.106391 -0.02958,-0.107121 -0.02703,-0.107793 -0.02447,-0.108404 -0.02189,-0.108953 -0.0193,-0.109441 -0.0167,-0.109868 -0.01409,-0.110233 -0.01147,-0.110537 -0.0089,-0.110777 -0.0062,-0.110956 -0.0036,-0.111072 -9.55e-4,-0.111126 0.0017,-0.111118 0.0043,-0.111046 0.0069,-0.110913 0.0096,-0.110718 0.01219,-0.110459 0.01481,-0.110139 0.01742,-0.109757 0.02001,-0.109313 0.0226,-0.108808 0.02517,-0.108241 0.02773,-0.107614 0.03028,-0.106927 0.0328,-0.106178 0.03531,-0.105372 0.0378,-0.104504 0.04027,-0.103579 0.04271,-0.102595 0.04513,-0.101554 0.04753,-0.100455 0.04989,-0.0993 0.05223,-0.09809 0.05454,-0.09682 0.05682,-0.0955 0.05907,-0.09413 0.06129,-0.0927 0.06347,-0.09122 0.06561,-0.08969 0.06772,-0.08811 0.06979,-0.08648 0.07182,-0.0848 0.07381,-0.08308 0.07576,-0.0813 0.07767,-0.07948 0.07953,-0.07762 0.08135,-0.07571 0.08312,-0.07376 0.08485,-0.07177 0.08652,-0.06974 0.08815,-0.06767 0.08973,-0.06556 0.09126,-0.06341 0.09274,-0.06123 0.09417,-0.05902 0.09554,-0.05677 0.09686,-0.05449 0.09812,-0.05217 0.09933,-0.04984 0.100483,-0.04747 0.101581,-0.04507 0.102621,-0.04265 0.103602,-0.04021 0.104527,-0.03774 0.105392,-0.03525 0.106198,-0.03274 0.106945,-0.03021 0.107631,-0.02767 0.108256,-0.02511 0.108821,-0.02254 0.109325,-0.01995 0.109768,-0.01735 0.110147,-0.01475 0.110467,-0.01213 0.110723,-0.0095 z"
       transform="matrix(0.12837743,-0.0933852,0.0933852,0.12837743,43.008806,77.415685)" />
  </g>
</svg>
